<svg width="48" height="48" viewBox="0 0 48 48" fill="none" xmlns="http://www.w3.org/2000/svg">
  <rect width="48" height="48" rx="10" fill="#0F2318"/>
  <g transform="translate(5.5 5.5) scale(0.77)">
    <circle cx="24" cy="24" r="20.5" stroke="#C9A052" stroke-width="3"/>
    <g stroke="#C9A052" stroke-width="2.4" stroke-linecap="round" fill="none">
      <path d="M9 29 C15 16, 33 16, 39 29"/><path d="M12 34 C17 24, 31 24, 36 34"/><path d="M15 39 C19 32, 29 32, 33 39"/>
    </g>
    <g stroke="#C9A052" stroke-width="2.4" stroke-linecap="round" fill="none" transform="rotate(180 24 24)">
      <path d="M9 29 C15 16, 33 16, 39 29"/><path d="M12 34 C17 24, 31 24, 36 34"/><path d="M15 39 C19 32, 29 32, 33 39"/>
    </g>
  </g>
</svg>
